<svg xmlns="http://www.w3.org/2000/svg" xmlns:xlink="http://www.w3.org/1999/xlink" width="1920" height="3033.6" viewBox="0 0 1920 3033.6">
  <defs>
    <clipPath id="clip-Jamshdi_4-task_7_">
      <rect width="1920" height="3033.6"/>
    </clipPath>
  </defs>
  <g id="Jamshdi_4-task_7_" data-name="Jamshdi 4-task/7/" clip-path="url(#clip-Jamshdi_4-task_7_)">
    <rect width="1920" height="3033.6" fill="#f5f5f5"/>
    <g id="Rectangle_30" data-name="Rectangle 30" transform="translate(213 2938)" fill="#fff" stroke="#707070" stroke-width="1">
      <rect width="1495" height="96" stroke="none"/>
      <rect x="0.5" y="0.5" width="1494" height="95" fill="none"/>
    </g>
    <g id="Rectangle_31" data-name="Rectangle 31" transform="translate(213 2514)" fill="#fff" stroke="#707070" stroke-width="1">
      <rect width="1495" height="424" stroke="none"/>
      <rect x="0.5" y="0.5" width="1494" height="423" fill="none"/>
    </g>
    <g id="Rectangle_8" data-name="Rectangle 8" transform="translate(213 1912)" fill="#fff" stroke="#707070" stroke-width="1">
      <rect width="1495" height="602" stroke="none"/>
      <rect x="0.5" y="0.5" width="1494" height="601" fill="none"/>
    </g>
    <g id="Rectangle_7" data-name="Rectangle 7" transform="translate(213 945)" fill="#fff" stroke="#707070" stroke-width="1">
      <rect width="1495" height="967" stroke="none"/>
      <rect x="0.5" y="0.5" width="1494" height="966" fill="none"/>
    </g>
    <g id="Rectangle_1" data-name="Rectangle 1" fill="#dedede" stroke="#707070" stroke-width="1">
      <rect width="19020" height="60" stroke="none"/>
      <rect x="0.5" y="0.5" width="19019" height="59" fill="none"/>
    </g>
    <g id="Ellipse_1" data-name="Ellipse 1" transform="translate(29 15)" fill="#fff" stroke="#707070" stroke-width="1">
      <circle cx="15" cy="15" r="15" stroke="none"/>
      <circle cx="15" cy="15" r="14.5" fill="none"/>
    </g>
    <g id="Ellipse_2" data-name="Ellipse 2" transform="translate(71 15)" fill="#fff" stroke="#707070" stroke-width="1">
      <circle cx="15" cy="15" r="15" stroke="none"/>
      <circle cx="15" cy="15" r="14.5" fill="none"/>
    </g>
    <g id="Ellipse_3" data-name="Ellipse 3" transform="translate(113 15)" fill="#fff" stroke="#707070" stroke-width="1">
      <circle cx="15" cy="15" r="15" stroke="none"/>
      <circle cx="15" cy="15" r="14.5" fill="none"/>
    </g>
    <g id="Rectangle_2" data-name="Rectangle 2" transform="translate(155 15)" fill="#fff" stroke="#707070" stroke-width="1">
      <rect width="1140" height="32" stroke="none"/>
      <rect x="0.5" y="0.5" width="1139" height="31" fill="none"/>
    </g>
    <g id="Rectangle_4" data-name="Rectangle 4" transform="translate(213 60)" fill="#fff" stroke="#707070" stroke-width="1">
      <rect width="1495" height="52" stroke="none"/>
      <rect x="0.5" y="0.5" width="1494" height="51" fill="none"/>
    </g>
    <g id="Rectangle_5" data-name="Rectangle 5" transform="translate(213 112)" fill="#fff" stroke="#707070" stroke-width="1">
      <rect width="1495" height="138" stroke="none"/>
      <rect x="0.5" y="0.5" width="1494" height="137" fill="none"/>
    </g>
    <g id="Group_1" data-name="Group 1" transform="translate(0 111)">
      <g id="Rectangle_6" data-name="Rectangle 6" transform="translate(213 350)" fill="#fff" stroke="#707070" stroke-width="1">
        <rect width="1495" height="484" stroke="none"/>
        <rect x="0.5" y="0.5" width="1494" height="483" fill="none"/>
      </g>
    </g>
    <g id="Rectangle_9" data-name="Rectangle 9" transform="translate(294 146)" fill="#fff" stroke="#707070" stroke-width="2">
      <rect width="213" height="71" stroke="none"/>
      <rect x="1" y="1" width="211" height="69" fill="none"/>
    </g>
    <g id="Rectangle_10" data-name="Rectangle 10" transform="translate(1464 146)" fill="#fff" stroke="#707070" stroke-width="2">
      <rect width="60" height="60" stroke="none"/>
      <rect x="1" y="1" width="58" height="58" fill="none"/>
    </g>
    <g id="Rectangle_13" data-name="Rectangle 13" transform="translate(1335 334)" fill="#fff" stroke="#707070" stroke-width="2">
      <rect width="80" height="71" stroke="none"/>
      <rect x="1" y="1" width="78" height="69" fill="none"/>
    </g>
    <g id="Rectangle_12" data-name="Rectangle 12" transform="translate(213 250)" fill="#fff" stroke="#707070" stroke-width="1">
      <rect width="1495" height="211" stroke="none"/>
      <rect x="0.5" y="0.5" width="1494" height="210" fill="none"/>
    </g>
    <g id="Rectangle_11" data-name="Rectangle 11" transform="translate(1269 316)" fill="#fff" stroke="#707070" stroke-width="2">
      <rect width="50" height="50" stroke="none"/>
      <rect x="1" y="1" width="48" height="48" fill="none"/>
    </g>
    <g id="Rectangle_14" data-name="Rectangle 14" transform="translate(1351 316)" fill="#939393" stroke="#707070" stroke-width="2">
      <rect width="193" height="40" stroke="none"/>
      <rect x="1" y="1" width="191" height="38" fill="none"/>
    </g>
    <g id="Rectangle_15" data-name="Rectangle 15" transform="translate(993 541)" fill="#fff" stroke="#707070" stroke-width="1">
      <rect width="551" height="325" stroke="none"/>
      <rect x="0.5" y="0.5" width="550" height="324" fill="none"/>
    </g>
    <path id="Path_1" data-name="Path 1" d="M749,516l549.916,324.342" transform="translate(244 25)" fill="none" stroke="#707070" stroke-width="1"/>
    <path id="Path_2" data-name="Path 2" d="M1298.916,516,749.732,839.829" transform="translate(244 25)" fill="none" stroke="#707070" stroke-width="1"/>
    <line id="Line_1" data-name="Line 1" x2="584" transform="translate(294.5 541.5)" fill="none" stroke="#707070" stroke-width="4"/>
    <line id="Line_2" data-name="Line 2" x2="584" y2="3" transform="translate(294.5 607.5)" fill="none" stroke="#707070" stroke-width="25"/>
    <line id="Line_2-2" data-name="Line 2" x2="584" y2="3" transform="translate(294.5 655.5)" fill="none" stroke="#707070" stroke-width="25"/>
    <line id="Line_2-3" data-name="Line 2" x2="584" y2="3" transform="translate(294.5 703.5)" fill="none" stroke="#707070" stroke-width="25"/>
    <line id="Line_2-4" data-name="Line 2" x2="584" y2="3" transform="translate(294.5 751.5)" fill="none" stroke="#707070" stroke-width="25"/>
    <line id="Line_2-5" data-name="Line 2" x2="584" y2="3" transform="translate(294.5 799.5)" fill="none" stroke="#707070" stroke-width="25"/>
    <line id="Line_2-6" data-name="Line 2" x2="584" y2="3" transform="translate(294.5 847.5)" fill="none" stroke="#707070" stroke-width="25"/>
    <line id="Line_3" data-name="Line 3" y1="0.056" x2="405.459" transform="translate(295.041 1282.5)" fill="none" stroke="#707070" stroke-width="25"/>
    <line id="Line_7" data-name="Line 7" y1="0.056" x2="405.459" transform="translate(797.532 1278.302)" fill="none" stroke="#707070" stroke-width="25"/>
    <line id="Line_11" data-name="Line 11" y1="0.056" x2="405.459" transform="translate(1300.023 1274.104)" fill="none" stroke="#707070" stroke-width="25"/>
    <line id="Line_15" data-name="Line 15" y1="0.056" x2="405.459" transform="translate(1302.682 1627.984)" fill="none" stroke="#707070" stroke-width="25"/>
    <line id="Line_19" data-name="Line 19" y1="0.056" x2="405.459" transform="translate(797.532 1643.822)" fill="none" stroke="#707070" stroke-width="25"/>
    <line id="Line_23" data-name="Line 23" y1="0.056" x2="405.459" transform="translate(295.041 1643.822)" fill="none" stroke="#707070" stroke-width="25"/>
    <line id="Line_6" data-name="Line 6" x2="405.459" y2="0.817" transform="translate(295.041 1246.683)" fill="none" stroke="#707070" stroke-width="4"/>
    <line id="Line_8" data-name="Line 8" x2="405.459" y2="0.817" transform="translate(797.532 1242.484)" fill="none" stroke="#707070" stroke-width="4"/>
    <line id="Line_12" data-name="Line 12" x2="405.459" y2="0.817" transform="translate(1300.023 1238.286)" fill="none" stroke="#707070" stroke-width="4"/>
    <line id="Line_16" data-name="Line 16" x2="405.459" y2="0.817" transform="translate(1302.682 1592.167)" fill="none" stroke="#707070" stroke-width="4"/>
    <line id="Line_20" data-name="Line 20" x2="405.459" y2="0.817" transform="translate(797.532 1608.004)" fill="none" stroke="#707070" stroke-width="4"/>
    <line id="Line_24" data-name="Line 24" x2="405.459" y2="0.817" transform="translate(295.041 1608.004)" fill="none" stroke="#707070" stroke-width="4"/>
    <line id="Line_4" data-name="Line 4" x2="460.459" y2="2.071" transform="translate(295.041 1318.429)" fill="none" stroke="#707070" stroke-width="25"/>
    <line id="Line_9" data-name="Line 9" x2="460.459" y2="2.071" transform="translate(797.532 1314.23)" fill="none" stroke="#707070" stroke-width="25"/>
    <line id="Line_13" data-name="Line 13" x2="405.477" y2="6.468" transform="translate(1300.023 1310.032)" fill="none" stroke="#707070" stroke-width="25"/>
    <line id="Line_17" data-name="Line 17" y1="0.413" x2="405.818" transform="translate(1302.682 1663.5)" fill="none" stroke="#707070" stroke-width="25"/>
    <line id="Line_21" data-name="Line 21" x2="460.459" y2="2.071" transform="translate(797.532 1679.75)" fill="none" stroke="#707070" stroke-width="25"/>
    <line id="Line_25" data-name="Line 25" x2="460.459" y2="2.071" transform="translate(295.041 1679.75)" fill="none" stroke="#707070" stroke-width="25"/>
    <line id="Line_5" data-name="Line 5" x2="405.459" y2="4.198" transform="translate(295.041 1354.302)" fill="none" stroke="#707070" stroke-width="25"/>
    <line id="Line_10" data-name="Line 10" x2="405.459" y2="4.198" transform="translate(797.532 1350.104)" fill="none" stroke="#707070" stroke-width="25"/>
    <line id="Line_14" data-name="Line 14" x2="405.459" y2="4.198" transform="translate(1300.023 1345.905)" fill="none" stroke="#707070" stroke-width="25"/>
    <line id="Line_18" data-name="Line 18" x2="405.459" y2="4.198" transform="translate(1302.682 1699.786)" fill="none" stroke="#707070" stroke-width="25"/>
    <line id="Line_22" data-name="Line 22" x2="405.459" y2="4.198" transform="translate(797.532 1715.624)" fill="none" stroke="#707070" stroke-width="25"/>
    <line id="Line_26" data-name="Line 26" x2="405.459" y2="4.198" transform="translate(295.041 1715.624)" fill="none" stroke="#707070" stroke-width="25"/>
    <g id="Rectangle_19" data-name="Rectangle 19" transform="translate(1301.6 1012)" fill="#fff" stroke="#707070" stroke-width="1">
      <rect width="406.252" height="161" stroke="none"/>
      <rect x="0.5" y="0.5" width="405.252" height="160" fill="none"/>
    </g>
    <g id="Rectangle_26" data-name="Rectangle 26" transform="translate(1302.141 1390.766)" fill="#fff" stroke="#707070" stroke-width="1">
      <rect width="406.252" height="161" stroke="none"/>
      <rect x="0.5" y="0.5" width="405.252" height="160" fill="none"/>
    </g>
    <g id="Rectangle_27" data-name="Rectangle 27" transform="translate(798.073 1390.47)" fill="#fff" stroke="#707070" stroke-width="1">
      <rect width="406.252" height="161" stroke="none"/>
      <rect x="0.5" y="0.5" width="405.252" height="160" fill="none"/>
    </g>
    <g id="Rectangle_28" data-name="Rectangle 28" transform="translate(294.006 1390.175)" fill="#fff" stroke="#707070" stroke-width="1">
      <rect width="406.252" height="161" stroke="none"/>
      <rect x="0.5" y="0.5" width="405.252" height="160" fill="none"/>
    </g>
    <g id="Rectangle_24" data-name="Rectangle 24" transform="translate(797.532 1012)" fill="#fff" stroke="#707070" stroke-width="1">
      <rect width="406.252" height="161" stroke="none"/>
      <rect x="0.5" y="0.5" width="405.252" height="160" fill="none"/>
    </g>
    <g id="Rectangle_25" data-name="Rectangle 25" transform="translate(294.5 1011.704)" fill="#fff" stroke="#707070" stroke-width="1">
      <rect width="406.252" height="161" stroke="none"/>
      <rect x="0.5" y="0.5" width="405.252" height="160" fill="none"/>
    </g>
    <g id="Rectangle_23" data-name="Rectangle 23" transform="translate(294.5 1932.568)" fill="#fff" stroke="#707070" stroke-width="1">
      <rect width="665.257" height="492.071" stroke="none"/>
      <rect x="0.5" y="0.5" width="664.257" height="491.071" fill="none"/>
    </g>
    <path id="Path_5" data-name="Path 5" d="M749,516l406.4,161.034" transform="translate(552.6 496)" fill="none" stroke="#707070" stroke-width="1"/>
    <path id="Path_19" data-name="Path 19" d="M749,516l406.4,161.034" transform="translate(553.141 874.766)" fill="none" stroke="#707070" stroke-width="1"/>
    <path id="Path_21" data-name="Path 21" d="M749,516l406.4,161.034" transform="translate(49.073 874.47)" fill="none" stroke="#707070" stroke-width="1"/>
    <path id="Path_23" data-name="Path 23" d="M749,516l406.4,161.034" transform="translate(-454.994 874.175)" fill="none" stroke="#707070" stroke-width="1"/>
    <path id="Path_15" data-name="Path 15" d="M749,516l406.4,161.034" transform="translate(48.532 496)" fill="none" stroke="#707070" stroke-width="1"/>
    <path id="Path_17" data-name="Path 17" d="M749,516l406.4,161.034" transform="translate(-454.5 495.704)" fill="none" stroke="#707070" stroke-width="1"/>
    <path id="Path_13" data-name="Path 13" d="M749,516l665.5,492.175" transform="translate(-454.5 1416.568)" fill="none" stroke="#707070" stroke-width="1"/>
    <path id="Path_6" data-name="Path 6" d="M1155.592,516,749.732,676.738" transform="translate(552.408 496)" fill="none" stroke="#707070" stroke-width="1"/>
    <path id="Path_20" data-name="Path 20" d="M1155.592,516,749.732,676.738" transform="translate(552.95 874.766)" fill="none" stroke="#707070" stroke-width="1"/>
    <path id="Path_22" data-name="Path 22" d="M1155.592,516,749.732,676.738" transform="translate(48.882 874.47)" fill="none" stroke="#707070" stroke-width="1"/>
    <path id="Path_24" data-name="Path 24" d="M1155.592,516,749.732,676.738" transform="translate(-455.185 874.175)" fill="none" stroke="#707070" stroke-width="1"/>
    <path id="Path_16" data-name="Path 16" d="M1155.592,516,749.732,676.738" transform="translate(48.341 496)" fill="none" stroke="#707070" stroke-width="1"/>
    <path id="Path_18" data-name="Path 18" d="M1155.592,516,749.732,676.738" transform="translate(-454.691 495.704)" fill="none" stroke="#707070" stroke-width="1"/>
    <path id="Path_14" data-name="Path 14" d="M1414.346,516,749.732,1007.271" transform="translate(-454.346 1416.568)" fill="none" stroke="#707070" stroke-width="1"/>
    <line id="Line_27" data-name="Line 27" x2="546" y2="1" transform="translate(1086.486 1988.5)" fill="none" stroke="#707070" stroke-width="4"/>
    <line id="Line_28" data-name="Line 28" x2="546" y2="1" transform="translate(1086.527 2055.048)" fill="none" stroke="#707070" stroke-width="25"/>
    <line id="Line_29" data-name="Line 29" x2="546" y2="1" transform="translate(1086.527 2096.71)" fill="none" stroke="#707070" stroke-width="25"/>
    <line id="Line_30" data-name="Line 30" y1="1.21" x2="272.959" transform="translate(1086.583 2158.596)" fill="none" stroke="#707070" stroke-width="25"/>
    <line id="Line_30-2" data-name="Line 30" y1="1.21" x2="272.959" transform="translate(1435.583 2158.596)" fill="none" stroke="#707070" stroke-width="25"/>
    <line id="Line_31" data-name="Line 31" y1="1.21" x2="272.959" transform="translate(294 2636.585)" fill="none" stroke="#707070" stroke-width="25"/>
    <line id="Line_37" data-name="Line 37" y1="1.21" x2="272.959" transform="translate(742.021 2636.585)" fill="none" stroke="#707070" stroke-width="25"/>
    <line id="Line_43" data-name="Line 43" y1="1.21" x2="272.959" transform="translate(1190.041 2635.375)" fill="none" stroke="#707070" stroke-width="25"/>
    <line id="Line_30-3" data-name="Line 30" y1="1.21" x2="272.959" transform="translate(1086.583 2205.596)" fill="none" stroke="#707070" stroke-width="25"/>
    <line id="Line_30-4" data-name="Line 30" y1="1.21" x2="272.959" transform="translate(1435.583 2205.596)" fill="none" stroke="#707070" stroke-width="25"/>
    <line id="Line_32" data-name="Line 32" y1="1.21" x2="272.959" transform="translate(294 2683.585)" fill="none" stroke="#707070" stroke-width="25"/>
    <line id="Line_38" data-name="Line 38" y1="1.21" x2="272.959" transform="translate(742.021 2683.585)" fill="none" stroke="#707070" stroke-width="25"/>
    <line id="Line_44" data-name="Line 44" y1="1.21" x2="272.959" transform="translate(1190.041 2682.375)" fill="none" stroke="#707070" stroke-width="25"/>
    <line id="Line_30-5" data-name="Line 30" y1="1.21" x2="272.959" transform="translate(1086.583 2252.596)" fill="none" stroke="#707070" stroke-width="25"/>
    <line id="Line_30-6" data-name="Line 30" y1="1.21" x2="272.959" transform="translate(1435.583 2252.596)" fill="none" stroke="#707070" stroke-width="25"/>
    <line id="Line_33" data-name="Line 33" y1="1.21" x2="272.959" transform="translate(294 2730.585)" fill="none" stroke="#707070" stroke-width="25"/>
    <line id="Line_39" data-name="Line 39" y1="1.21" x2="272.959" transform="translate(742.021 2730.585)" fill="none" stroke="#707070" stroke-width="25"/>
    <line id="Line_45" data-name="Line 45" y1="1.21" x2="272.959" transform="translate(1190.041 2729.375)" fill="none" stroke="#707070" stroke-width="25"/>
    <line id="Line_30-7" data-name="Line 30" y1="1.21" x2="272.959" transform="translate(1086.583 2299.596)" fill="none" stroke="#707070" stroke-width="25"/>
    <line id="Line_30-8" data-name="Line 30" y1="1.21" x2="272.959" transform="translate(1435.583 2299.596)" fill="none" stroke="#707070" stroke-width="25"/>
    <line id="Line_34" data-name="Line 34" y1="1.21" x2="272.959" transform="translate(294 2777.585)" fill="none" stroke="#707070" stroke-width="25"/>
    <line id="Line_40" data-name="Line 40" y1="1.21" x2="272.959" transform="translate(742.021 2777.585)" fill="none" stroke="#707070" stroke-width="25"/>
    <line id="Line_46" data-name="Line 46" y1="1.21" x2="272.959" transform="translate(1190.041 2776.375)" fill="none" stroke="#707070" stroke-width="25"/>
    <line id="Line_30-9" data-name="Line 30" y1="1.21" x2="272.959" transform="translate(1086.583 2346.596)" fill="none" stroke="#707070" stroke-width="25"/>
    <line id="Line_30-10" data-name="Line 30" y1="1.21" x2="272.959" transform="translate(1435.583 2346.596)" fill="none" stroke="#707070" stroke-width="25"/>
    <line id="Line_35" data-name="Line 35" y1="1.21" x2="272.959" transform="translate(294 2824.585)" fill="none" stroke="#707070" stroke-width="25"/>
    <line id="Line_41" data-name="Line 41" y1="1.21" x2="272.959" transform="translate(742.021 2824.585)" fill="none" stroke="#707070" stroke-width="25"/>
    <line id="Line_47" data-name="Line 47" y1="1.21" x2="272.959" transform="translate(1190.041 2823.375)" fill="none" stroke="#707070" stroke-width="25"/>
    <line id="Line_30-11" data-name="Line 30" y1="1.21" x2="272.959" transform="translate(1086.583 2393.596)" fill="none" stroke="#707070" stroke-width="25"/>
    <line id="Line_30-12" data-name="Line 30" y1="1.21" x2="272.959" transform="translate(1435.583 2393.596)" fill="none" stroke="#707070" stroke-width="25"/>
    <line id="Line_36" data-name="Line 36" y1="1.21" x2="272.959" transform="translate(294 2871.585)" fill="none" stroke="#707070" stroke-width="25"/>
    <line id="Line_42" data-name="Line 42" y1="1.21" x2="272.959" transform="translate(742.021 2871.585)" fill="none" stroke="#707070" stroke-width="25"/>
    <line id="Line_48" data-name="Line 48" y1="1.21" x2="272.959" transform="translate(1190.041 2870.375)" fill="none" stroke="#707070" stroke-width="25"/>
    <g id="Rectangle_29" data-name="Rectangle 29" transform="translate(1483 2621)" fill="#fff" stroke="#707070" stroke-width="1">
      <rect width="211" height="61" stroke="none"/>
      <rect x="0.5" y="0.5" width="210" height="60" fill="none"/>
    </g>
    <text id="LOGO" transform="translate(336 202)" font-size="49" font-family="SegoeUI, Segoe UI"><tspan x="0" y="0">LOGO</tspan></text>
    <text id="HOME_PAGES_INVENTORY_SERVICES_BLOG_SHOP_CONTACT" data-name="HOME   PAGES       INVENTORY       SERVICES      BLOG        SHOP    CONTACT" transform="translate(619 188)" font-size="24" font-family="SegoeUI, Segoe UI"><tspan x="0" y="0" xml:space="preserve">HOME   PAGES       INVENTORY       SERVICES      BLOG        SHOP    CONTACT</tspan></text>
    <text id="OUR_SERVICES" data-name="OUR SERVICES" transform="translate(293 346)" font-size="40" font-family="SegoeUI-Bold, Segoe UI" font-weight="700"><tspan x="0" y="0">OUR SERVICES</tspan></text>
    <text id="OUR_SERVICES-2" data-name="OUR SERVICES" transform="translate(863 988)" font-size="40" font-family="SegoeUI-Bold, Segoe UI" font-weight="700"><tspan x="0" y="0">OUR SERVICES</tspan></text>
    <text id="SMART_CAR" data-name="SMART CAR" transform="translate(295 533)" font-size="30" font-family="SegoeUI, Segoe UI"><tspan x="0" y="0">SMART CAR</tspan></text>
    <text id="ELECTRICAL_SYSTEM" data-name="ELECTRICAL SYSTEM" transform="translate(295 1238)" font-size="30" font-family="SegoeUI, Segoe UI"><tspan x="0" y="0">ELECTRICAL SYSTEM</tspan></text>
    <text id="ELECTRICAL_SYSTEM-2" data-name="ELECTRICAL SYSTEM" transform="translate(296 1602)" font-size="30" font-family="SegoeUI, Segoe UI"><tspan x="0" y="0">ELECTRICAL SYSTEM</tspan></text>
    <text id="OIL_FILTER" data-name="OIL FILTER" transform="translate(799 1237)" font-size="30" font-family="SegoeUI, Segoe UI"><tspan x="0" y="0">OIL FILTER</tspan></text>
    <text id="OIL_FILTER-2" data-name="OIL FILTER" transform="translate(799 1602)" font-size="30" font-family="SegoeUI, Segoe UI"><tspan x="0" y="0">OIL FILTER</tspan></text>
    <text id="ENGINE_REPAIR_SERVICE" data-name="ENGINE REPAIR  SERVICE" transform="translate(1303 1238)" font-size="30" font-family="SegoeUI, Segoe UI"><tspan x="0" y="0" xml:space="preserve">ENGINE REPAIR  SERVICE</tspan></text>
    <text id="ENGINE_REPAIR_SERVICE-2" data-name="ENGINE REPAIR  SERVICE" transform="translate(1303 1585)" font-size="30" font-family="SegoeUI, Segoe UI"><tspan x="0" y="0" xml:space="preserve">ENGINE REPAIR  SERVICE</tspan></text>
    <text id="FULL_OPTION_SERVICE" data-name="FULL OPTION SERVICE" transform="translate(1087 1989)" font-size="30" font-family="SegoeUI, Segoe UI"><tspan x="0" y="0">FULL OPTION SERVICE</tspan></text>
    <text id="ABOUT_US" data-name="ABOUT US" transform="translate(295 2612)" font-size="30" font-family="SegoeUI, Segoe UI"><tspan x="0" y="0">ABOUT US</tspan></text>
    <text id="BUSINES_HOURS" data-name="BUSINES HOURS" transform="translate(738 2621)" font-size="30" font-family="SegoeUI, Segoe UI"><tspan x="0" y="0">BUSINES HOURS</tspan></text>
    <text id="CONTACT_INFO" data-name="CONTACT INFO" transform="translate(1190 2619)" font-size="30" font-family="SegoeUI, Segoe UI"><tspan x="0" y="0">CONTACT INFO</tspan></text>
    <text id="NEWS_LETTER" data-name="NEWS LETTER" transform="translate(1480 2612)" font-size="30" font-family="SegoeUI, Segoe UI"><tspan x="0" y="0">NEWS LETTER</tspan></text>
    <text id="ABOUT_US_SERVICES_INVENTRY_FAQ_Sell_A_Car_Contact" data-name="ABOUT US    SERVICES      INVENTRY    FAQ    Sell A  Car    Contact" transform="translate(1101 2997)" font-size="20" font-family="SegoeUI, Segoe UI"><tspan x="0" y="0" xml:space="preserve">ABOUT US    SERVICES      INVENTRY    FAQ    Sell A  Car    Contact</tspan></text>
    <line id="Line_49" data-name="Line 49" x2="751" transform="translate(295.5 2986.5)" fill="none" stroke="#707070" stroke-width="25"/>
  </g>
</svg>
